G04 EAGLE Gerber RS-274X export*
G75*
%MOMM*%
%FSLAX34Y34*%
%LPD*%
%IN*%
%IPPOS*%
%AMOC8*
5,1,8,0,0,1.08239X$1,22.5*%
G01*
%ADD10C,0.254000*%


D10*
X1270Y635D02*
X696400Y635D01*
X696400Y350400D01*
X1270Y350400D01*
X1270Y635D01*
X51750Y316261D02*
X51677Y315054D01*
X51531Y313854D01*
X51313Y312665D01*
X51024Y311492D01*
X50665Y310338D01*
X50236Y309208D01*
X49740Y308106D01*
X49178Y307035D01*
X48553Y306001D01*
X47866Y305006D01*
X47121Y304055D01*
X46319Y303150D01*
X45465Y302296D01*
X44560Y301494D01*
X43609Y300749D01*
X42614Y300062D01*
X41580Y299437D01*
X40509Y298875D01*
X39407Y298379D01*
X38277Y297950D01*
X37123Y297591D01*
X35950Y297302D01*
X34761Y297084D01*
X33561Y296938D01*
X32354Y296865D01*
X31146Y296865D01*
X29939Y296938D01*
X28739Y297084D01*
X27550Y297302D01*
X26377Y297591D01*
X25223Y297950D01*
X24093Y298379D01*
X22991Y298875D01*
X21920Y299437D01*
X20886Y300062D01*
X19891Y300749D01*
X18940Y301494D01*
X18035Y302296D01*
X17181Y303150D01*
X16379Y304055D01*
X15634Y305006D01*
X14947Y306001D01*
X14322Y307035D01*
X13760Y308106D01*
X13264Y309208D01*
X12835Y310338D01*
X12476Y311492D01*
X12187Y312665D01*
X11969Y313854D01*
X11823Y315054D01*
X11750Y316261D01*
X11750Y317469D01*
X11823Y318676D01*
X11969Y319876D01*
X12187Y321065D01*
X12476Y322238D01*
X12835Y323392D01*
X13264Y324522D01*
X13760Y325624D01*
X14322Y326695D01*
X14947Y327729D01*
X15634Y328724D01*
X16379Y329675D01*
X17181Y330580D01*
X18035Y331434D01*
X18940Y332236D01*
X19891Y332981D01*
X20886Y333668D01*
X21920Y334293D01*
X22991Y334855D01*
X24093Y335351D01*
X25223Y335780D01*
X26377Y336139D01*
X27550Y336428D01*
X28739Y336646D01*
X29939Y336792D01*
X31146Y336865D01*
X32354Y336865D01*
X33561Y336792D01*
X34761Y336646D01*
X35950Y336428D01*
X37123Y336139D01*
X38277Y335780D01*
X39407Y335351D01*
X40509Y334855D01*
X41580Y334293D01*
X42614Y333668D01*
X43609Y332981D01*
X44560Y332236D01*
X45465Y331434D01*
X46319Y330580D01*
X47121Y329675D01*
X47866Y328724D01*
X48553Y327729D01*
X49178Y326695D01*
X49740Y325624D01*
X50236Y324522D01*
X50665Y323392D01*
X51024Y322238D01*
X51313Y321065D01*
X51531Y319876D01*
X51677Y318676D01*
X51750Y317469D01*
X51750Y316261D01*
X602930Y181006D02*
X602857Y179799D01*
X602711Y178599D01*
X602493Y177410D01*
X602204Y176237D01*
X601845Y175083D01*
X601416Y173953D01*
X600920Y172851D01*
X600358Y171780D01*
X599733Y170746D01*
X599046Y169751D01*
X598301Y168800D01*
X597499Y167895D01*
X596645Y167041D01*
X595740Y166239D01*
X594789Y165494D01*
X593794Y164807D01*
X592760Y164182D01*
X591689Y163620D01*
X590587Y163124D01*
X589457Y162695D01*
X588303Y162336D01*
X587130Y162047D01*
X585941Y161829D01*
X584741Y161683D01*
X583534Y161610D01*
X582326Y161610D01*
X581119Y161683D01*
X579919Y161829D01*
X578730Y162047D01*
X577557Y162336D01*
X576403Y162695D01*
X575273Y163124D01*
X574171Y163620D01*
X573100Y164182D01*
X572066Y164807D01*
X571071Y165494D01*
X570120Y166239D01*
X569215Y167041D01*
X568361Y167895D01*
X567559Y168800D01*
X566814Y169751D01*
X566127Y170746D01*
X565502Y171780D01*
X564940Y172851D01*
X564444Y173953D01*
X564015Y175083D01*
X563656Y176237D01*
X563367Y177410D01*
X563149Y178599D01*
X563003Y179799D01*
X562930Y181006D01*
X562930Y182214D01*
X563003Y183421D01*
X563149Y184621D01*
X563367Y185810D01*
X563656Y186983D01*
X564015Y188137D01*
X564444Y189267D01*
X564940Y190369D01*
X565502Y191440D01*
X566127Y192474D01*
X566814Y193469D01*
X567559Y194420D01*
X568361Y195325D01*
X569215Y196179D01*
X570120Y196981D01*
X571071Y197726D01*
X572066Y198413D01*
X573100Y199038D01*
X574171Y199600D01*
X575273Y200096D01*
X576403Y200525D01*
X577557Y200884D01*
X578730Y201173D01*
X579919Y201391D01*
X581119Y201537D01*
X582326Y201610D01*
X583534Y201610D01*
X584741Y201537D01*
X585941Y201391D01*
X587130Y201173D01*
X588303Y200884D01*
X589457Y200525D01*
X590587Y200096D01*
X591689Y199600D01*
X592760Y199038D01*
X593794Y198413D01*
X594789Y197726D01*
X595740Y196981D01*
X596645Y196179D01*
X597499Y195325D01*
X598301Y194420D01*
X599046Y193469D01*
X599733Y192474D01*
X600358Y191440D01*
X600920Y190369D01*
X601416Y189267D01*
X601845Y188137D01*
X602204Y186983D01*
X602493Y185810D01*
X602711Y184621D01*
X602857Y183421D01*
X602930Y182214D01*
X602930Y181006D01*
X51750Y30506D02*
X51677Y29299D01*
X51531Y28099D01*
X51313Y26910D01*
X51024Y25737D01*
X50665Y24583D01*
X50236Y23453D01*
X49740Y22351D01*
X49178Y21280D01*
X48553Y20246D01*
X47866Y19251D01*
X47121Y18300D01*
X46319Y17395D01*
X45465Y16541D01*
X44560Y15739D01*
X43609Y14994D01*
X42614Y14307D01*
X41580Y13682D01*
X40509Y13120D01*
X39407Y12624D01*
X38277Y12195D01*
X37123Y11836D01*
X35950Y11547D01*
X34761Y11329D01*
X33561Y11183D01*
X32354Y11110D01*
X31146Y11110D01*
X29939Y11183D01*
X28739Y11329D01*
X27550Y11547D01*
X26377Y11836D01*
X25223Y12195D01*
X24093Y12624D01*
X22991Y13120D01*
X21920Y13682D01*
X20886Y14307D01*
X19891Y14994D01*
X18940Y15739D01*
X18035Y16541D01*
X17181Y17395D01*
X16379Y18300D01*
X15634Y19251D01*
X14947Y20246D01*
X14322Y21280D01*
X13760Y22351D01*
X13264Y23453D01*
X12835Y24583D01*
X12476Y25737D01*
X12187Y26910D01*
X11969Y28099D01*
X11823Y29299D01*
X11750Y30506D01*
X11750Y31714D01*
X11823Y32921D01*
X11969Y34121D01*
X12187Y35310D01*
X12476Y36483D01*
X12835Y37637D01*
X13264Y38767D01*
X13760Y39869D01*
X14322Y40940D01*
X14947Y41974D01*
X15634Y42969D01*
X16379Y43920D01*
X17181Y44825D01*
X18035Y45679D01*
X18940Y46481D01*
X19891Y47226D01*
X20886Y47913D01*
X21920Y48538D01*
X22991Y49100D01*
X24093Y49596D01*
X25223Y50025D01*
X26377Y50384D01*
X27550Y50673D01*
X28739Y50891D01*
X29939Y51037D01*
X31146Y51110D01*
X32354Y51110D01*
X33561Y51037D01*
X34761Y50891D01*
X35950Y50673D01*
X37123Y50384D01*
X38277Y50025D01*
X39407Y49596D01*
X40509Y49100D01*
X41580Y48538D01*
X42614Y47913D01*
X43609Y47226D01*
X44560Y46481D01*
X45465Y45679D01*
X46319Y44825D01*
X47121Y43920D01*
X47866Y42969D01*
X48553Y41974D01*
X49178Y40940D01*
X49740Y39869D01*
X50236Y38767D01*
X50665Y37637D01*
X51024Y36483D01*
X51313Y35310D01*
X51531Y34121D01*
X51677Y32921D01*
X51750Y31714D01*
X51750Y30506D01*
M02*
