G04 EAGLE Gerber RS-274X export*
G75*
%MOMM*%
%FSLAX34Y34*%
%LPD*%
%INSoldermask Top*%
%IPPOS*%
%AMOC8*
5,1,8,0,0,1.08239X$1,22.5*%
G01*
%ADD10C,4.203200*%
%ADD11R,1.903200X1.703200*%
%ADD12R,1.603200X1.603200*%
%ADD13R,1.723200X1.983200*%
%ADD14R,1.803200X2.003200*%
%ADD15R,1.603200X1.203200*%
%ADD16R,2.003200X1.803200*%
%ADD17C,2.203200*%
%ADD18C,1.727200*%
%ADD19R,1.803200X2.006200*%
%ADD20R,1.983200X1.723200*%
%ADD21C,1.711200*%
%ADD22R,2.006200X1.803200*%
%ADD23C,2.743200*%


D10*
X31750Y316865D03*
X582930Y181610D03*
X31750Y31110D03*
D11*
X225975Y116105D03*
X225975Y167105D03*
X135975Y167105D03*
X135975Y116105D03*
D12*
X272410Y107860D03*
X272410Y144860D03*
D13*
X351700Y165735D03*
X351700Y140335D03*
X351700Y114935D03*
X444600Y114935D03*
X444600Y140335D03*
X444600Y165735D03*
D14*
X163855Y66035D03*
X135855Y66035D03*
X164495Y214635D03*
X136495Y214635D03*
X254030Y80645D03*
X226030Y80645D03*
X332140Y81285D03*
X304140Y81285D03*
D15*
X294205Y194305D03*
X272205Y184805D03*
X272205Y203805D03*
D16*
X99695Y127605D03*
X99695Y155605D03*
D17*
X54360Y166586D03*
X54360Y115786D03*
D18*
X665480Y254000D02*
X665480Y269240D01*
X640080Y269240D02*
X640080Y254000D01*
X614680Y254000D02*
X614680Y269240D01*
D17*
X630810Y69009D03*
X630810Y119809D03*
D19*
X340745Y229235D03*
X369185Y229235D03*
D14*
X400340Y229235D03*
X428340Y229235D03*
D20*
X485140Y191040D03*
X510540Y191040D03*
X535940Y191040D03*
X535940Y283940D03*
X510540Y283940D03*
X485140Y283940D03*
D19*
X512060Y148590D03*
X483620Y148590D03*
D21*
X539115Y98980D02*
X539115Y83900D01*
X513715Y83900D02*
X513715Y98980D01*
X488315Y98980D02*
X488315Y83900D01*
D22*
X579120Y283460D03*
X579120Y255020D03*
D19*
X399284Y282321D03*
X370844Y282321D03*
D16*
X305435Y116810D03*
X305435Y144810D03*
D23*
X87503Y268605D02*
X87503Y294005D01*
X312547Y294005D02*
X312547Y268605D01*
M02*
